<svg width="95" height="82" viewBox="0 0 95 82" fill="none" xmlns="http://www.w3.org/2000/svg">
<circle cx="93.1335" cy="80.0493" r="1.54225" transform="rotate(-180 93.1335 80.0493)" fill="black" fillOpacity="0.1"/>
<circle cx="80.049" cy="80.0493" r="1.54225" transform="rotate(-180 80.049 80.0493)" fill="black" fillOpacity="0.1"/>
<circle cx="66.9645" cy="80.0493" r="1.54225" transform="rotate(-180 66.9645 80.0493)" fill="black" fillOpacity="0.1"/>
<circle cx="53.88" cy="80.0493" r="1.54225" transform="rotate(-180 53.88 80.0493)" fill="black" fillOpacity="0.1"/>
<circle cx="93.1335" cy="66.9648" r="1.54225" transform="rotate(-180 93.1335 66.9648)" fill="black" fillOpacity="0.1"/>
<circle cx="80.049" cy="66.9648" r="1.54225" transform="rotate(-180 80.049 66.9648)" fill="black" fillOpacity="0.1"/>
<circle cx="66.9645" cy="66.9648" r="1.54225" transform="rotate(-180 66.9645 66.9648)" fill="black" fillOpacity="0.1"/>
<circle cx="53.88" cy="66.9648" r="1.54225" transform="rotate(-180 53.88 66.9648)" fill="black" fillOpacity="0.1"/>
<circle cx="93.1335" cy="53.8804" r="1.54225" transform="rotate(-180 93.1335 53.8804)" fill="black" fillOpacity="0.1"/>
<circle cx="80.049" cy="53.8804" r="1.54225" transform="rotate(-180 80.049 53.8804)" fill="black" fillOpacity="0.1"/>
<circle cx="66.9645" cy="53.8804" r="1.54225" transform="rotate(-180 66.9645 53.8804)" fill="black" fillOpacity="0.1"/>
<circle cx="53.88" cy="53.8804" r="1.54225" transform="rotate(-180 53.88 53.8804)" fill="black" fillOpacity="0.1"/>
<circle cx="93.1335" cy="40.7959" r="1.54225" transform="rotate(-180 93.1335 40.7959)" fill="black" fillOpacity="0.1"/>
<circle cx="80.049" cy="40.7959" r="1.54225" transform="rotate(-180 80.049 40.7959)" fill="black" fillOpacity="0.1"/>
<circle cx="66.9645" cy="40.7959" r="1.54225" transform="rotate(-180 66.9645 40.7959)" fill="black" fillOpacity="0.1"/>
<circle cx="53.88" cy="40.7959" r="1.54225" transform="rotate(-180 53.88 40.7959)" fill="black" fillOpacity="0.1"/>
<circle cx="40.7955" cy="40.7959" r="1.54225" transform="rotate(-180 40.7955 40.7959)" fill="black" fillOpacity="0.1"/>
<circle cx="27.711" cy="40.7959" r="1.54225" transform="rotate(-180 27.711 40.7959)" fill="black" fillOpacity="0.1"/>
<circle cx="14.6265" cy="40.7959" r="1.54225" transform="rotate(-180 14.6265 40.7959)" fill="black" fillOpacity="0.1"/>
<circle cx="1.54198" cy="40.7959" r="1.54225" transform="rotate(-180 1.54198 40.7959)" fill="black" fillOpacity="0.1"/>
<circle cx="93.1335" cy="27.7112" r="1.54225" transform="rotate(-180 93.1335 27.7112)" fill="black" fillOpacity="0.1"/>
<circle cx="80.049" cy="27.7112" r="1.54225" transform="rotate(-180 80.049 27.7112)" fill="black" fillOpacity="0.1"/>
<circle cx="66.9645" cy="27.7112" r="1.54225" transform="rotate(-180 66.9645 27.7112)" fill="black" fillOpacity="0.1"/>
<circle cx="53.88" cy="27.7112" r="1.54225" transform="rotate(-180 53.88 27.7112)" fill="black" fillOpacity="0.1"/>
<circle cx="40.7955" cy="27.7112" r="1.54225" transform="rotate(-180 40.7955 27.7112)" fill="black" fillOpacity="0.1"/>
<circle cx="27.711" cy="27.7112" r="1.54225" transform="rotate(-180 27.711 27.7112)" fill="black" fillOpacity="0.1"/>
<circle cx="14.6265" cy="27.7112" r="1.54225" transform="rotate(-180 14.6265 27.7112)" fill="black" fillOpacity="0.1"/>
<circle cx="1.54198" cy="27.7112" r="1.54225" transform="rotate(-180 1.54198 27.7112)" fill="black" fillOpacity="0.1"/>
<circle cx="93.1335" cy="14.6267" r="1.54225" transform="rotate(-180 93.1335 14.6267)" fill="black" fillOpacity="0.1"/>
<circle cx="80.049" cy="14.6267" r="1.54225" transform="rotate(-180 80.049 14.6267)" fill="black" fillOpacity="0.1"/>
<circle cx="66.9645" cy="14.6267" r="1.54225" transform="rotate(-180 66.9645 14.6267)" fill="black" fillOpacity="0.1"/>
<circle cx="53.88" cy="14.6267" r="1.54225" transform="rotate(-180 53.88 14.6267)" fill="black" fillOpacity="0.1"/>
<circle cx="40.7955" cy="14.6267" r="1.54225" transform="rotate(-180 40.7955 14.6267)" fill="black" fillOpacity="0.1"/>
<circle cx="27.711" cy="14.6267" r="1.54225" transform="rotate(-180 27.711 14.6267)" fill="black" fillOpacity="0.1"/>
<circle cx="14.6265" cy="14.6267" r="1.54225" transform="rotate(-180 14.6265 14.6267)" fill="black" fillOpacity="0.1"/>
<circle cx="1.54198" cy="14.6267" r="1.54225" transform="rotate(-180 1.54198 14.6267)" fill="black" fillOpacity="0.1"/>
<circle cx="93.1335" cy="1.54222" r="1.54225" transform="rotate(-180 93.1335 1.54222)" fill="black" fillOpacity="0.1"/>
<circle cx="80.049" cy="1.54222" r="1.54225" transform="rotate(-180 80.049 1.54222)" fill="black" fillOpacity="0.1"/>
<circle cx="66.9645" cy="1.54222" r="1.54225" transform="rotate(-180 66.9645 1.54222)" fill="black" fillOpacity="0.1"/>
<circle cx="53.88" cy="1.54222" r="1.54225" transform="rotate(-180 53.88 1.54222)" fill="black" fillOpacity="0.1"/>
<circle cx="40.7955" cy="1.54222" r="1.54225" transform="rotate(-180 40.7955 1.54222)" fill="black" fillOpacity="0.1"/>
<circle cx="27.711" cy="1.54222" r="1.54225" transform="rotate(-180 27.711 1.54222)" fill="black" fillOpacity="0.1"/>
<circle cx="14.6265" cy="1.54222" r="1.54225" transform="rotate(-180 14.6265 1.54222)" fill="black" fillOpacity="0.1"/>
<circle cx="1.54198" cy="1.54222" r="1.54225" transform="rotate(-180 1.54198 1.54222)" fill="black" fillOpacity="0.1"/>
</svg>
